<svg version="1.1" xmlns="http://www.w3.org/2000/svg" xmlns:xlink="http://www.w3.org/1999/xlink" width="976.7647058823528" height="588"><style xmlns="http://www.w3.org/1999/xhtml"></style><defs/><g transform="translate(0,0)"><g><rect fill="#FFFFFF" stroke="none" x="0" y="0" width="976.7647058823528" height="588"/></g><g transform="translate(0.5,0.5) matrix(1,0,0,1,30,20)"><g><g transform="translate(0,0) scale(3.9705882352941146,3.9705882352941178)"><g><g><g><path fill="#000000" stroke="rgb(0,0,0)" d="M 39 3 C 39 3 19.375 3 18 3 C 16 3 15 0 13 0 C 11 0 3 0 3 0 C 1.343 0 0 1.344 0 3 L 0 31 C 0 32.657 1.343 34 3 34 L 39 34 C 40.656 34 42 32.657 42 31 L 42 6 C 42 4.344 40.656 3 39 3 Z M 40 31 C 40 31.553 39.553 32 39 32 L 3 32 C 2.448 32 2 31.553 2 31 L 2 11 C 2 10.447 2.448 10 3 10 L 39 10 C 39.553 10 40 10.447 40 11 L 40 31 Z M 40 8.184 C 39.686 8.072 39.353 8 39 8 L 3 8 C 2.647 8 2.314 8.072 2 8.184 L 2 3 C 2 2.448 2.448 2 3 2 C 3 2 10 2 12 2 C 15 2 14 5 17 5 C 19.5 5 39 5 39 5 C 39.553 5 40 5.448 40 6 L 40 8.184 Z" stroke-opacity="0" stroke-miterlimit="10"/></g></g></g></g></g></g><g transform="matrix(1,0,0,1,39,79)"><g transform="translate(147,3) matrix(1,0,0,1,0,0) translate(-147,-3)"><g><rect fill="rgb(0,0,0)" stroke="none" x="0" y="0" width="150" height="18" fill-opacity="0"/></g></g><g transform="translate(147,3) matrix(1,0,0,1,0,0) translate(-147,-3)"><g><rect fill="rgb(0,0,0)" stroke="none" x="0" y="0" width="150" height="18" fill-opacity="0"/></g></g><g transform="translate(147,3) matrix(1,0,0,1,0,0) translate(-147,-3)"><g><rect fill="rgb(0,0,0)" stroke="none" x="43" y="0" width="61" height="17" fill-opacity="0"/></g><text fill="rgb(0, 0, 0)" stroke="none" font-family="Arial" font-size="16px" font-style="normal" font-weight="normal" text-decoration="" line-height="18.5px" x="43" y="15">template</text></g><g transform="translate(147,3) matrix(1,0,0,1,0,0) translate(-147,-3)"><g><rect fill="rgb(0,0,0)" stroke="none" x="104" y="3" width="3" height="14" fill-opacity="0"/></g></g></g><g transform="translate(0.5,0.5) matrix(1,0,0,1,210,120)"><g><g transform="translate(0,0) scale(3.9705882352941146,3.9705882352941178)"><g><g><g><path fill="#3c78d8" stroke="rgb(0,0,0)" d="M 39 3 C 39 3 19.375 3 18 3 C 16 3 15 0 13 0 C 11 0 3 0 3 0 C 1.343 0 0 1.344 0 3 L 0 31 C 0 32.657 1.343 34 3 34 L 39 34 C 40.656 34 42 32.657 42 31 L 42 6 C 42 4.344 40.656 3 39 3 Z M 40 31 C 40 31.553 39.553 32 39 32 L 3 32 C 2.448 32 2 31.553 2 31 L 2 11 C 2 10.447 2.448 10 3 10 L 39 10 C 39.553 10 40 10.447 40 11 L 40 31 Z M 40 8.184 C 39.686 8.072 39.353 8 39 8 L 3 8 C 2.647 8 2.314 8.072 2 8.184 L 2 3 C 2 2.448 2.448 2 3 2 C 3 2 10 2 12 2 C 15 2 14 5 17 5 C 19.5 5 39 5 39 5 C 39.553 5 40 5.448 40 6 L 40 8.184 Z" stroke-opacity="0" stroke-miterlimit="10"/></g></g></g></g></g></g><g transform="matrix(1,0,0,1,219,179)"><g transform="translate(40,0) matrix(1,0,0,1,0,0) translate(-40,0)"><g><rect fill="rgb(0,0,0)" stroke="none" x="0" y="0" width="150" height="18" fill-opacity="0"/></g></g><g transform="translate(40,0) matrix(1,0,0,1,0,0) translate(-40,0)"><g><rect fill="rgb(0,0,0)" stroke="none" x="0" y="0" width="150" height="18" fill-opacity="0"/></g></g><g transform="translate(40,0) matrix(1,0,0,1,0,0) translate(-40,0)"><g><rect fill="rgb(0,0,0)" stroke="none" x="40" y="0" width="70" height="17" fill-opacity="0"/></g><text fill="rgb(0, 0, 0)" stroke="none" font-family="Arial" font-size="16px" font-style="normal" font-weight="normal" text-decoration="" line-height="18.5px" x="40" y="15">Vorlage</text><text fill="rgb(0, 0, 0)" stroke="none" font-family="Arial" font-size="16px" font-style="normal" font-weight="normal" text-decoration="" line-height="18.5px" x="97" y="15">A</text></g></g><g transform="translate(0.5,0.5) matrix(1,0,0,1,390,202.5)"><g><g transform="translate(0,0) scale(3.9705882352941146,3.9705882352941178)"><g><g><g><path fill="#999999" stroke="rgb(0,0,0)" d="M 39 3 C 39 3 19.375 3 18 3 C 16 3 15 0 13 0 C 11 0 3 0 3 0 C 1.343 0 0 1.344 0 3 L 0 31 C 0 32.657 1.343 34 3 34 L 39 34 C 40.656 34 42 32.657 42 31 L 42 6 C 42 4.344 40.656 3 39 3 Z M 40 31 C 40 31.553 39.553 32 39 32 L 3 32 C 2.448 32 2 31.553 2 31 L 2 11 C 2 10.447 2.448 10 3 10 L 39 10 C 39.553 10 40 10.447 40 11 L 40 31 Z M 40 8.184 C 39.686 8.072 39.353 8 39 8 L 3 8 C 2.647 8 2.314 8.072 2 8.184 L 2 3 C 2 2.448 2.448 2 3 2 C 3 2 10 2 12 2 C 15 2 14 5 17 5 C 19.5 5 39 5 39 5 C 39.553 5 40 5.448 40 6 L 40 8.184 Z" stroke-opacity="0" stroke-miterlimit="10"/></g></g></g></g></g></g><g transform="matrix(1,0,0,1,399,261)"><g transform="translate(191,0) matrix(1,0,0,1,0,0) translate(-191,0)"><g><rect fill="rgb(0,0,0)" stroke="none" x="0" y="0" width="150" height="18" fill-opacity="0"/></g></g><g transform="translate(191,0) matrix(1,0,0,1,0,0) translate(-191,0)"><g><rect fill="rgb(0,0,0)" stroke="none" x="0" y="0" width="150" height="18" fill-opacity="0"/></g></g><g transform="translate(191,0) matrix(1,0,0,1,0,0) translate(-191,0)"><g><rect fill="rgb(0,0,0)" stroke="none" x="45" y="0" width="60" height="17" fill-opacity="0"/></g></g><g transform="translate(191,0) matrix(1,0,0,1,0,0) translate(-191,0)"><g><rect fill="rgb(0,0,0)" stroke="none" x="45" y="0" width="56" height="17" fill-opacity="0"/></g><text fill="rgb(0, 0, 0)" stroke="none" font-family="Arial" font-size="16px" font-style="normal" font-weight="normal" text-decoration="" line-height="18.5px" x="45" y="15">function</text></g><g transform="translate(191,0) matrix(1,0,0,1,0,0) translate(-191,0)"><g><rect fill="rgb(0,0,0)" stroke="none" x="101" y="0" width="4" height="17" fill-opacity="0"/></g></g></g><g transform="translate(0,0) matrix(1,0,0,1,316.7647058823528,356.5)"><g><g transform="translate(0,0) scale(1.2,0.25)"><g><path fill="none" stroke="none" d="M 4 0 L 96 0 Q 100 0 100 4 L 100 100 L 0 100 L 0 4 Q 0 0 4 0 Z"/><g transform="scale(0.8333333333333334,4)"><path fill="#1155cc" stroke="#1155cc" d="M 4 0 L 116 0 Q 120 0 120 4 L 120 25 L 0 25 L 0 4 Q 0 0 4 0 Z" stroke-miterlimit="10" stroke-width="2"/></g></g></g></g></g><g transform="translate(0,0) matrix(1,0,0,1,316.7647058823528,381.5)"><g><g transform="translate(0,0) scale(0.9999750006249843,1.0212765957446808) translate(0,-25)"><g transform="translate(0,25)"><g><path fill="none" stroke="none" d="M 0 0 L 120.003 0 L 120.003 66.5 Q 120.003 70.5 116.003 70.5 L 4 70.5 Q 0 70.5 0 66.5 L 0 0 Z"/><g transform="scale(1.000025,0.9791666666666667)"><path fill="#cfddf5" stroke="#1155cc" d="M 0 0 L 120 0 L 120 68 Q 120 72 116 72 L 4 72 Q 0 72 0 68 L 0 0 Z" stroke-miterlimit="10" stroke-width="2"/></g></g></g><g><g><path fill="#1155cc" stroke="rgb(0,0,0)" d="M 80.5 63.158 L 80.5 56.842 L 75.121 56.842 C 74.742 54.737 74.08 53.52 73.191 52.112 L 77.002 48.261 L 72.291 43.525 L 68.391 47.324 C 66.983 46.436 65.764 45.765 63.66 45.385 L 63.66 40 L 57.343 40 L 57.343 45.384 C 55.239 45.764 54.023 46.424 52.616 47.31 L 48.762 43.499 L 44.028 48.215 L 47.827 52.111 C 46.94 53.519 46.268 54.736 45.888 56.84 L 40.5 56.84 L 40.5 63.156 L 45.887 63.156 C 46.266 65.26 46.926 66.475 47.811 67.885 L 44.002 71.739 L 48.715 76.476 L 52.613 72.677 C 54.021 73.566 55.238 74.236 57.342 74.615 L 57.342 80 L 63.659 80 L 63.659 74.617 C 65.763 74.238 66.98 73.577 68.392 72.689 L 72.245 76.499 L 76.978 71.787 L 73.181 67.889 C 74.07 66.481 74.743 65.264 75.12 63.16 L 80.5 63.158 L 80.5 63.158 Z M 67.168 59.999 C 67.168 63.68 64.186 66.665 60.501 66.665 C 56.819 66.665 53.835 63.68 53.835 59.999 C 53.835 56.316 56.819 53.332 60.501 53.332 C 64.186 53.332 67.168 56.316 67.168 59.999 Z" stroke-opacity="0" stroke-miterlimit="10"/></g></g></g></g></g><g transform="matrix(1,0,0,1,319,363)"><g transform="translate(27,-1) matrix(1,0,0,1,0,0) translate(-27,1)"><g><rect fill="rgb(0,0,0)" stroke="none" x="0" y="0" width="117" height="25" fill-opacity="0"/></g></g><g transform="translate(27,-1) matrix(1,0,0,1,0,0) translate(-27,1)"><g><rect fill="rgb(0,0,0)" stroke="none" x="0" y="0" width="117" height="13" fill-opacity="0"/></g></g><g transform="translate(27,-1) matrix(1,0,0,1,0,0) translate(-27,1)"><g><rect fill="rgb(0,0,0)" stroke="none" x="27" y="-1" width="63" height="15" fill-opacity="0"/></g><text fill="rgb(0, 0, 0)" stroke="none" font-family="Helvetica" font-size="13px" font-style="normal" font-weight="700" text-decoration="" line-height="13px" x="27" y="12">Dockerfile</text></g></g><g transform="translate(0,0) matrix(1,0,0,1,316.7647058823528,470)"><g><g transform="translate(0,0) scale(1.2,0.26)"><g><path fill="none" stroke="none" d="M 4 0 L 96 0 Q 100 0 100 4 L 100 100 L 0 100 L 0 4 Q 0 0 4 0 Z"/><g transform="scale(0.8333333333333334,3.846153846153846)"><path fill="#3c78d8" stroke="#3c78d8" d="M 4 0 L 116 0 Q 120 0 120 4 L 120 26 L 0 26 L 0 4 Q 0 0 4 0 Z" stroke-miterlimit="10" stroke-width="2"/></g></g></g></g></g><g transform="translate(0,0) matrix(1,0,0,1,316.7647058823528,496)"><g><g transform="translate(0,0) scale(0.9999750006249843,1.0212765957446808) translate(0,-25)"><g transform="translate(0,25)"><g><path fill="none" stroke="none" d="M 0 0 L 120.003 0 L 120.003 66.5 Q 120.003 70.5 116.003 70.5 L 4 70.5 Q 0 70.5 0 66.5 L 0 0 Z"/><g transform="scale(1.000025,0.9791666666666667)"><path fill="#d8e4f7" stroke="#3c78d8" d="M 0 0 L 120 0 L 120 68 Q 120 72 116 72 L 4 72 Q 0 72 0 68 L 0 0 Z" stroke-miterlimit="10" stroke-width="2"/></g></g></g><g transform="translate(44,41)"><g><path fill="#3c78d8" stroke="rgb(0,0,0)" d="M 26.4 27.5 L 26.4 29.167 C 26.4 29.41 26.323 29.61 26.168 29.766 C 26.013 29.922 25.816 30 25.575 30 L 7.425 30 C 7.184 30 6.986 29.922 6.832 29.766 C 6.677 29.61 6.6 29.41 6.6 29.167 L 6.6 27.5 C 6.6 27.257 6.677 27.057 6.832 26.901 C 6.987 26.745 7.184 26.667 7.425 26.667 L 25.574 26.667 C 25.815 26.667 26.013 26.745 26.167 26.901 C 26.322 27.057 26.4 27.257 26.4 27.5 Z M 26.4 20.833 L 26.4 22.5 C 26.4 22.743 26.323 22.943 26.168 23.099 C 26.013 23.255 25.816 23.333 25.575 23.333 L 7.425 23.333 C 7.184 23.333 6.986 23.255 6.832 23.099 C 6.677 22.943 6.6 22.743 6.6 22.5 L 6.6 20.833 C 6.6 20.59 6.677 20.39 6.832 20.234 C 6.987 20.078 7.184 20 7.425 20 L 25.574 20 C 25.815 20 26.013 20.078 26.167 20.234 C 26.322 20.39 26.4 20.59 26.4 20.833 Z M 3.301 36.667 L 29.701 36.667 L 29.701 16.667 L 18.976 16.667 C 18.289 16.667 17.704 16.424 17.223 15.938 C 16.742 15.451 16.501 14.861 16.501 14.167 L 16.501 3.333 L 3.302 3.333 L 3.302 36.667 L 3.301 36.667 Z M 19.8 13.333 L 29.494 13.333 C 29.322 12.83 29.133 12.474 28.927 12.265 L 20.858 4.114 C 20.652 3.906 20.3 3.715 19.801 3.541 L 19.801 13.333 L 19.8 13.333 Z M 33 14.167 L 33 37.5 C 33 38.194 32.759 38.785 32.278 39.271 C 31.796 39.757 31.212 40 30.525 40 L 2.475 40 C 1.788 40 1.203 39.757 0.722 39.271 C 0.241 38.785 0 38.195 0 37.5 L 0 2.5 C 0 1.806 0.241 1.215 0.722 0.729 C 1.203 0.243 1.788 0 2.475 0 L 18.975 0 C 19.662 0 20.418 0.174 21.244 0.521 C 22.069 0.868 22.722 1.285 23.203 1.771 L 31.247 9.896 C 31.728 10.382 32.141 11.042 32.485 11.875 C 32.828 12.708 33 13.472 33 14.167 Z" stroke-opacity="0" stroke-miterlimit="10"/></g></g></g></g></g><g transform="matrix(1,0,0,1,319,476)"><g transform="translate(22,0) matrix(1,0,0,1,0,0) translate(-22,0)"><g><rect fill="rgb(0,0,0)" stroke="none" x="0" y="0" width="117" height="26" fill-opacity="0"/></g></g><g transform="translate(22,0) matrix(1,0,0,1,0,0) translate(-22,0)"><g><rect fill="rgb(0,0,0)" stroke="none" x="0" y="0" width="117" height="14" fill-opacity="0"/></g></g><g transform="translate(22,0) matrix(1,0,0,1,0,0) translate(-22,0)"><g><rect fill="rgb(0,0,0)" stroke="none" x="22" y="0" width="73" height="14" fill-opacity="0"/></g><text fill="rgb(0, 0, 0)" stroke="none" font-family="Arial" font-size="12px" font-style="normal" font-weight="700" text-decoration="" line-height="14px" x="22" y="11">template</text><text fill="rgb(0, 0, 0)" stroke="none" font-family="Arial" font-size="12px" font-style="normal" font-weight="700" text-decoration="" line-height="14px" x="71" y="11">.</text><text fill="rgb(0, 0, 0)" stroke="none" font-family="Arial" font-size="12px" font-style="normal" font-weight="700" text-decoration="" line-height="14px" x="75" y="11">yml</text></g></g><g transform="matrix(1,0,0,1,105.09999999999998,149.1)"><g transform="translate(0,0)"><g transform="translate(-109.6,-156.8) translate(4.500000000000014,7.700000000000017) matrix(1,0,0,1,0,0)"><g><path fill="none" stroke="#000000" d="M 109.6 153.6 L 109.59999999999998 153.6 L 109.59999999999998 201.6 L 215.2 201.6" stroke-miterlimit="10" stroke-width="2"/></g></g></g></g><g transform="matrix(1,0,0,1,245.9,246.7)"><g transform="translate(0,0)"><g transform="translate(-250.4,-251.2) translate(4.5,4.5) matrix(1,0,0,1,0,0)"><g><path fill="none" stroke="#000000" d="M 250.4 251.2 L 252 251.2 L 252 291.2 L 388.8 291.2" stroke-miterlimit="10" stroke-width="2"/></g></g></g></g><g transform="matrix(1,0,0,1,246.7,245.1)"><g transform="translate(0,0)"><g transform="translate(-251.2,-249.6) translate(4.5,4.5) matrix(1,0,0,1,0,0)"><g><path fill="none" stroke="#000000" d="M 251.2 249.6 L 251.2 405 L 316.7647058823528 405" stroke-miterlimit="10" stroke-width="2"/></g></g></g></g><g transform="matrix(1,0,0,1,245.9,245.9)"><g transform="translate(0,0)"><g transform="translate(-250.4,-250.4) translate(4.5,4.5) matrix(1,0,0,1,0,0)"><g><path fill="none" stroke="#000000" d="M 250.4 250.4 L 250.4 519 L 316.7647058823528 519" stroke-miterlimit="10" stroke-width="2"/></g></g></g></g><g transform="translate(0,0) matrix(1,0,0,1,496.7647058823528,356.5)"><g><g transform="translate(0,0) scale(1.2,0.25)"><g><path fill="none" stroke="none" d="M 4 0 L 96 0 Q 100 0 100 4 L 100 100 L 0 100 L 0 4 Q 0 0 4 0 Z"/><g transform="scale(0.8333333333333334,4)"><path fill="#999999" stroke="#999999" d="M 4 0 L 116 0 Q 120 0 120 4 L 120 25 L 0 25 L 0 4 Q 0 0 4 0 Z" stroke-miterlimit="10" stroke-width="2"/></g></g></g></g></g><g transform="matrix(1,0,0,1,499,363)"><g transform="translate(38,-1) matrix(1,0,0,1,0,0) translate(-38,1)"><g><rect fill="rgb(0,0,0)" stroke="none" x="0" y="0" width="117" height="25" fill-opacity="0"/></g></g><g transform="translate(38,-1) matrix(1,0,0,1,0,0) translate(-38,1)"><g><rect fill="rgb(0,0,0)" stroke="none" x="0" y="0" width="117" height="13" fill-opacity="0"/></g></g><g transform="translate(38,-1) matrix(1,0,0,1,0,0) translate(-38,1)"><g><rect fill="rgb(0,0,0)" stroke="none" x="38" y="-1" width="41" height="15" fill-opacity="0"/></g><text fill="rgb(0, 0, 0)" stroke="none" font-family="Helvetica" font-size="13px" font-style="normal" font-weight="normal" text-decoration="" line-height="13px" x="38" y="12">Datei</text><text fill="rgb(0, 0, 0)" stroke="none" font-family="Helvetica" font-size="13px" font-style="normal" font-weight="normal" text-decoration="" line-height="13px" x="70" y="12">1</text></g></g><g transform="translate(0,0) matrix(1,0,0,1,496.7647058823528,381.5)"><g><g transform="translate(0,0) scale(0.9999750006249843,1.0212765957446808) translate(0,-25)"><g transform="translate(0,25)"><g><path fill="none" stroke="none" d="M 0 0 L 120.003 0 L 120.003 66.5 Q 120.003 70.5 116.003 70.5 L 4 70.5 Q 0 70.5 0 66.5 L 0 0 Z"/><g transform="scale(1.000025,0.9791666666666667)"><path fill="#ebebeb" stroke="#999999" d="M 0 0 L 120 0 L 120 68 Q 120 72 116 72 L 4 72 Q 0 72 0 68 L 0 0 Z" stroke-miterlimit="10" stroke-width="2"/></g></g></g><g><g><path fill="#999999" stroke="rgb(0,0,0)" d="M 48.024 73.641 L 24.782 62.947 L 24.782 59.456 L 48.024 47.347 L 48.024 53.206 L 32.325 60.945 L 48.024 67.805 L 48.024 73.641 Z" stroke-opacity="0" stroke-miterlimit="10"/></g><g><path fill="#999999" stroke="rgb(0,0,0)" d="M 70.583 42.903 L 57.276 78.597 L 50.514 78.597 L 63.819 42.904 L 70.583 42.904 Z" stroke-opacity="0" stroke-miterlimit="10"/></g><g><path fill="#999999" stroke="rgb(0,0,0)" d="M 72.976 67.806 L 88.673 60.946 L 72.976 53.207 L 72.976 47.348 L 96.218 59.457 L 96.218 62.948 L 72.976 73.641 L 72.976 67.806 Z" stroke-opacity="0" stroke-miterlimit="10"/></g></g></g></g></g><g transform="translate(0,0) matrix(1,0,0,1,496.7647058823528,470)"><g><g transform="translate(0,0) scale(1.2,0.25)"><g><path fill="none" stroke="none" d="M 4 0 L 96 0 Q 100 0 100 4 L 100 100 L 0 100 L 0 4 Q 0 0 4 0 Z"/><g transform="scale(0.8333333333333334,4)"><path fill="#999999" stroke="#999999" d="M 4 0 L 116 0 Q 120 0 120 4 L 120 25 L 0 25 L 0 4 Q 0 0 4 0 Z" stroke-miterlimit="10" stroke-width="2"/></g></g></g></g></g><g transform="matrix(1,0,0,1,499,476)"><g transform="translate(37,-1) matrix(1,0,0,1,0,0) translate(-37,1)"><g><rect fill="rgb(0,0,0)" stroke="none" x="0" y="0" width="117" height="25" fill-opacity="0"/></g></g><g transform="translate(37,-1) matrix(1,0,0,1,0,0) translate(-37,1)"><g><rect fill="rgb(0,0,0)" stroke="none" x="0" y="0" width="117" height="13" fill-opacity="0"/></g></g><g transform="translate(37,-1) matrix(1,0,0,1,0,0) translate(-37,1)"><g><rect fill="rgb(0,0,0)" stroke="none" x="37" y="-1" width="43" height="15" fill-opacity="0"/></g><text fill="rgb(0, 0, 0)" stroke="none" font-family="Helvetica" font-size="13px" font-style="normal" font-weight="normal" text-decoration="" line-height="13px" x="37" y="12">Datei</text><text fill="rgb(0, 0, 0)" stroke="none" font-family="Helvetica" font-size="13px" font-style="normal" font-weight="normal" text-decoration="" line-height="13px" x="69" y="12">N</text></g></g><g transform="translate(0,0) matrix(1,0,0,1,496.7647058823528,495)"><g><g transform="translate(0,0) scale(0.9999750006249843,1.0212765957446808) translate(0,-25)"><g transform="translate(0,25)"><g><path fill="none" stroke="none" d="M 0 0 L 120.003 0 L 120.003 66.5 Q 120.003 70.5 116.003 70.5 L 4 70.5 Q 0 70.5 0 66.5 L 0 0 Z"/><g transform="scale(1.000025,0.9791666666666667)"><path fill="#ebebeb" stroke="#999999" d="M 0 0 L 120 0 L 120 68 Q 120 72 116 72 L 4 72 Q 0 72 0 68 L 0 0 Z" stroke-miterlimit="10" stroke-width="2"/></g></g></g><g><g><path fill="#999999" stroke="rgb(0,0,0)" d="M 48.024 73.641 L 24.782 62.947 L 24.782 59.456 L 48.024 47.347 L 48.024 53.206 L 32.325 60.945 L 48.024 67.805 L 48.024 73.641 Z" stroke-opacity="0" stroke-miterlimit="10"/></g><g><path fill="#999999" stroke="rgb(0,0,0)" d="M 70.583 42.903 L 57.276 78.597 L 50.514 78.597 L 63.819 42.904 L 70.583 42.904 Z" stroke-opacity="0" stroke-miterlimit="10"/></g><g><path fill="#999999" stroke="rgb(0,0,0)" d="M 72.976 67.806 L 88.673 60.946 L 72.976 53.207 L 72.976 47.348 L 96.218 59.457 L 96.218 62.948 L 72.976 73.641 L 72.976 67.806 Z" stroke-opacity="0" stroke-miterlimit="10"/></g></g></g></g></g><g transform="matrix(1,0,0,1,452.3,329.9)"><g transform="translate(0,0)"><g transform="translate(-456.8,-334.4) translate(4.5,4.5) matrix(1,0,0,1,0,0)"><g><path fill="none" stroke="#000000" d="M 456.8 334.4 L 456.8 405 L 496.7647058823528 405" stroke-miterlimit="10" stroke-width="2"/></g></g></g></g><g transform="matrix(1,0,0,1,450.7,329.9)"><g transform="translate(0,0)"><g transform="translate(-455.2,-334.4) translate(4.5,4.5) matrix(1,0,0,1,0,0)"><g><path fill="none" stroke="#000000" d="M 455.2 334.4 L 455.2 518.5 L 496.7647058823528 518.5" stroke-miterlimit="10" stroke-width="2"/></g></g></g></g><g transform="translate(0.5,0.5) matrix(1,0,0,1,590,134.99999999999997)"><g><g transform="translate(0,0) scale(3.9705882352941146,3.9705882352941178)"><g><g><g><path fill="#9fc5e8" stroke="rgb(0,0,0)" d="M 39 3 C 39 3 19.375 3 18 3 C 16 3 15 0 13 0 C 11 0 3 0 3 0 C 1.343 0 0 1.344 0 3 L 0 31 C 0 32.657 1.343 34 3 34 L 39 34 C 40.656 34 42 32.657 42 31 L 42 6 C 42 4.344 40.656 3 39 3 Z M 40 31 C 40 31.553 39.553 32 39 32 L 3 32 C 2.448 32 2 31.553 2 31 L 2 11 C 2 10.447 2.448 10 3 10 L 39 10 C 39.553 10 40 10.447 40 11 L 40 31 Z M 40 8.184 C 39.686 8.072 39.353 8 39 8 L 3 8 C 2.647 8 2.314 8.072 2 8.184 L 2 3 C 2 2.448 2.448 2 3 2 C 3 2 10 2 12 2 C 15 2 14 5 17 5 C 19.5 5 39 5 39 5 C 39.553 5 40 5.448 40 6 L 40 8.184 Z" stroke-opacity="0" stroke-miterlimit="10"/></g></g></g></g></g></g><g transform="matrix(1,0,0,1,599,193)"><g transform="translate(40,0) matrix(1,0,0,1,0,0) translate(-40,0)"><g><rect fill="rgb(0,0,0)" stroke="none" x="0" y="0" width="150" height="18" fill-opacity="0"/></g></g><g transform="translate(40,0) matrix(1,0,0,1,0,0) translate(-40,0)"><g><rect fill="rgb(0,0,0)" stroke="none" x="0" y="0" width="150" height="18" fill-opacity="0"/></g></g><g transform="translate(40,0) matrix(1,0,0,1,0,0) translate(-40,0)"><g><rect fill="rgb(0,0,0)" stroke="none" x="40" y="0" width="70" height="17" fill-opacity="0"/></g><text fill="rgb(153, 153, 153)" stroke="none" font-family="Arial" font-size="16px" font-style="normal" font-weight="normal" text-decoration="" line-height="18.5px" x="40" y="15">Vorlage</text><text fill="rgb(153, 153, 153)" stroke="none" font-family="Arial" font-size="16px" font-style="normal" font-weight="normal" text-decoration="" line-height="18.5px" x="97" y="15">B</text></g></g><g transform="translate(0.5,0.5) matrix(1,0,0,1,790,134.99999999999997)"><g><g transform="translate(0,0) scale(3.9705882352941146,3.9705882352941178)"><g><g><g><path fill="#9fc5e8" stroke="rgb(0,0,0)" d="M 39 3 C 39 3 19.375 3 18 3 C 16 3 15 0 13 0 C 11 0 3 0 3 0 C 1.343 0 0 1.344 0 3 L 0 31 C 0 32.657 1.343 34 3 34 L 39 34 C 40.656 34 42 32.657 42 31 L 42 6 C 42 4.344 40.656 3 39 3 Z M 40 31 C 40 31.553 39.553 32 39 32 L 3 32 C 2.448 32 2 31.553 2 31 L 2 11 C 2 10.447 2.448 10 3 10 L 39 10 C 39.553 10 40 10.447 40 11 L 40 31 Z M 40 8.184 C 39.686 8.072 39.353 8 39 8 L 3 8 C 2.647 8 2.314 8.072 2 8.184 L 2 3 C 2 2.448 2.448 2 3 2 C 3 2 10 2 12 2 C 15 2 14 5 17 5 C 19.5 5 39 5 39 5 C 39.553 5 40 5.448 40 6 L 40 8.184 Z" stroke-opacity="0" stroke-miterlimit="10"/></g></g></g></g></g></g><g transform="matrix(1,0,0,1,799,193)"><g transform="translate(40,0) matrix(1,0,0,1,0,0) translate(-40,0)"><g><rect fill="rgb(0,0,0)" stroke="none" x="0" y="0" width="150" height="18" fill-opacity="0"/></g></g><g transform="translate(40,0) matrix(1,0,0,1,0,0) translate(-40,0)"><g><rect fill="rgb(0,0,0)" stroke="none" x="0" y="0" width="150" height="18" fill-opacity="0"/></g></g><g transform="translate(40,0) matrix(1,0,0,1,0,0) translate(-40,0)"><g><rect fill="rgb(0,0,0)" stroke="none" x="40" y="0" width="70" height="17" fill-opacity="0"/></g><text fill="rgb(153, 153, 153)" stroke="none" font-family="Arial" font-size="16px" font-style="normal" font-weight="normal" text-decoration="" line-height="18.5px" x="40" y="15">Vorlage</text><text fill="rgb(153, 153, 153)" stroke="none" font-family="Arial" font-size="16px" font-style="normal" font-weight="normal" text-decoration="" line-height="18.5px" x="96" y="15">C</text></g></g></g></svg>