<?xml version="1.0" encoding="UTF-8"?>
<svg width="976.7647058823528" height="588" xmlns="http://www.w3.org/2000/svg" xmlns:svg="http://www.w3.org/2000/svg" xmlns:html="http://www.w3.org/1999/xhtml">
 <STYLE xmlns="http://www.w3.org/1999/xhtml"></STYLE>

 <g>
  <title>Layer 1</title>
  <g id="svg_4" transform="matrix(1, 0, 0, 1, 30, 20)">
   <g id="svg_5">
    <g id="svg_6" transform="translate(0) scale(3.97059)">
     <g id="svg_7">
      <g id="svg_8">
       <g id="svg_9">
        <path id="svg_10" stroke-miterlimit="10" stroke-opacity="0" d="m39.125927,3.125926c0,0 -19.625002,0 -21.000002,0c-2,0 -2.999999,-3 -4.999999,-3c-2,0 -10,0 -10,0c-1.657,0 -3,1.344 -3,3l0,27.999999c0,1.657003 1.343,3.000002 3,3.000002l36.000001,0c1.655998,0 3,-1.342999 3,-3.000002l0,-24.999999c0,-1.656 -1.344002,-3 -3,-3zm1,27.999999c0,0.552999 -0.446999,1.000002 -1,1.000002l-36.000001,0c-0.552,0 -1,-0.447002 -1,-1.000002l0,-19.999999c0,-0.553 0.448,-1 1,-1l36.000001,0c0.553001,0 1,0.447 1,1l0,19.999999zm0,-22.815999c-0.313999,-0.112 -0.646999,-0.184 -1,-0.184l-36.000001,0c-0.353,0 -0.686,0.072 -1,0.184l0,-5.184c0,-0.552 0.448,-1 1,-1c0,0 7,0 9,0c3,0 2,3 4.999999,3c2.5,0 22.000002,0 22.000002,0c0.553001,0 1,0.448 1,1l0,2.184z" stroke="rgb(0,0,0)" fill="#000000"/>
       </g>
      </g>
     </g>
    </g>
   </g>
  </g>
  <g id="svg_11" transform="matrix(1, 0, 0, 1, 39, 79)">
   <g id="svg_12" transform="translate(-147, -3)">
    <g id="svg_13">
     <rect id="svg_14" fill-opacity="0" height="18" width="150" y="3" x="147" fill="rgb(0,0,0)"/>
    </g>
   </g>
   <g id="svg_15" transform="translate(-147, -3)">
    <g id="svg_16">
     <rect id="svg_17" fill-opacity="0" height="18" width="150" y="3" x="147" fill="rgb(0,0,0)"/>
    </g>
   </g>
   <g id="svg_18" transform="translate(-147, -3)">
    <g id="svg_19">
     <rect id="svg_20" fill-opacity="0" height="17" width="61" y="3" x="190" fill="rgb(0,0,0)"/>
    </g>
    <text id="svg_21" y="18" x="190" font-weight="normal" font-style="normal" font-size="16px" font-family="Arial" fill="rgb(0, 0, 0)">template</text>
   </g>
   <g id="svg_22" transform="translate(-147, -3)">
    <g id="svg_23">
     <rect id="svg_24" fill-opacity="0" height="14" width="3" y="6" x="251" fill="rgb(0,0,0)"/>
    </g>
   </g>
  </g>
  <g id="svg_25" transform="matrix(1, 0, 0, 1, 210, 120)">
   <g id="svg_26">
    <g id="svg_27" transform="translate(0) scale(3.97059)">
     <g id="svg_28">
      <g id="svg_29">
       <g id="svg_30">
        <path id="svg_31" stroke-miterlimit="10" stroke-opacity="0" d="m39.125927,3.125926c0,0 -19.625002,0 -21.000002,0c-2,0 -2.999999,-3 -4.999999,-3c-2,0 -10,0 -10,0c-1.657,0 -3,1.344 -3,3l0,27.999999c0,1.657003 1.343,3.000002 3,3.000002l36.000001,0c1.655998,0 3,-1.342999 3,-3.000002l0,-24.999999c0,-1.656 -1.344002,-3 -3,-3zm1,27.999999c0,0.552999 -0.446999,1.000002 -1,1.000002l-36.000001,0c-0.552,0 -1,-0.447002 -1,-1.000002l0,-19.999999c0,-0.553 0.448,-1 1,-1l36.000001,0c0.553001,0 1,0.447 1,1l0,19.999999zm0,-22.815999c-0.313999,-0.112 -0.646999,-0.184 -1,-0.184l-36.000001,0c-0.353,0 -0.686,0.072 -1,0.184l0,-5.184c0,-0.552 0.448,-1 1,-1c0,0 7,0 9,0c3,0 2,3 4.999999,3c2.5,0 22.000002,0 22.000002,0c0.553001,0 1,0.448 1,1l0,2.184z" stroke="rgb(0,0,0)" fill="#3c78d8"/>
       </g>
      </g>
     </g>
    </g>
   </g>
  </g>
  <g id="svg_32" transform="matrix(1, 0, 0, 1, 219, 179)">
   <g id="svg_33" transform="translate(-40)">
    <g id="svg_34">
     <rect id="svg_35" fill-opacity="0" height="18" width="150" y="0" x="40" fill="rgb(0,0,0)"/>
    </g>
   </g>
   <g id="svg_36" transform="translate(-40)">
    <g id="svg_37">
     <rect id="svg_38" fill-opacity="0" height="18" width="150" y="0" x="40" fill="rgb(0,0,0)"/>
    </g>
   </g>
   <g id="svg_39" transform="translate(-40)">
    <g id="svg_40">
     <rect id="svg_41" fill-opacity="0" height="17" width="70" y="0" x="80" fill="rgb(0,0,0)"/>
    </g>
    <text id="svg_42" y="15" x="80" font-weight="normal" font-style="normal" font-size="16px" font-family="Arial" fill="rgb(0, 0, 0)">Vorlage</text>
    <text id="svg_43" y="15" x="137" font-weight="normal" font-style="normal" font-size="16px" font-family="Arial" fill="rgb(0, 0, 0)">A</text>
   </g>
  </g>
  <g id="svg_44" transform="matrix(1, 0, 0, 1, 390, 202.5)">
   <g id="svg_45">
    <g id="svg_46" transform="translate(0) scale(3.97059)">
     <g id="svg_47">
      <g id="svg_48">
       <g id="svg_49">
        <path id="svg_50" stroke-miterlimit="10" stroke-opacity="0" d="m39.125927,3.125926c0,0 -19.625002,0 -21.000002,0c-2,0 -2.999999,-3 -4.999999,-3c-2,0 -10,0 -10,0c-1.657,0 -3,1.344 -3,3l0,27.999999c0,1.657003 1.343,3.000002 3,3.000002l36.000001,0c1.655998,0 3,-1.342999 3,-3.000002l0,-24.999999c0,-1.656 -1.344002,-3 -3,-3zm1,27.999999c0,0.552999 -0.446999,1.000002 -1,1.000002l-36.000001,0c-0.552,0 -1,-0.447002 -1,-1.000002l0,-19.999999c0,-0.553 0.448,-1 1,-1l36.000001,0c0.553001,0 1,0.447 1,1l0,19.999999zm0,-22.815999c-0.313999,-0.112 -0.646999,-0.184 -1,-0.184l-36.000001,0c-0.353,0 -0.686,0.072 -1,0.184l0,-5.184c0,-0.552 0.448,-1 1,-1c0,0 7,0 9,0c3,0 2,3 4.999999,3c2.5,0 22.000002,0 22.000002,0c0.553001,0 1,0.448 1,1l0,2.184z" stroke="rgb(0,0,0)" fill="#999999"/>
       </g>
      </g>
     </g>
    </g>
   </g>
  </g>
  <g id="svg_51" transform="matrix(1, 0, 0, 1, 399, 261)">
   <g id="svg_52" transform="translate(-191)">
    <g id="svg_53">
     <rect id="svg_54" fill-opacity="0" height="18" width="150" y="0" x="191" fill="rgb(0,0,0)"/>
    </g>
   </g>
   <g id="svg_55" transform="translate(-191)">
    <g id="svg_56">
     <rect id="svg_57" fill-opacity="0" height="18" width="150" y="0" x="191" fill="rgb(0,0,0)"/>
    </g>
   </g>
   <g id="svg_58" transform="translate(-191)">
    <g id="svg_59">
     <rect id="svg_60" fill-opacity="0" height="17" width="60" y="0" x="236" fill="rgb(0,0,0)"/>
    </g>
   </g>
   <g id="svg_61" transform="translate(-191)">
    <g id="svg_62">
     <rect id="svg_63" fill-opacity="0" height="17" width="56" y="0" x="236" fill="rgb(0,0,0)"/>
    </g>
    <text id="svg_64" y="15" x="236" font-weight="normal" font-style="normal" font-size="16px" font-family="Arial" fill="rgb(0, 0, 0)">function</text>
   </g>
   <g id="svg_65" transform="translate(-191)">
    <g id="svg_66">
     <rect id="svg_67" fill-opacity="0" height="17" width="4" y="0" x="292" fill="rgb(0,0,0)"/>
    </g>
   </g>
  </g>
  <g id="svg_68" transform="matrix(1, 0, 0, 1, 316.765, 356.5)">
   <g id="svg_69">
    <g id="svg_70" transform="translate(0,0) scale(1.2,0.25)">
     <g id="svg_71">
      <path id="svg_72" d="m4,0l92,0q4,0 4,4l0,96l-100,0l0,-96q0,-4 4,-4z" fill="none"/>
      <g id="svg_73" transform="scale(0.8333333333333334,4)">
       <path id="svg_74" stroke-width="2" stroke-miterlimit="10" d="m4,0l112,0q4,0 4,4l0,21l-120,0l0,-21q0,-4 4,-4z" stroke="#1155cc" fill="#1155cc"/>
      </g>
     </g>
    </g>
   </g>
  </g>
  <g id="svg_75" transform="matrix(1, 0, 0, 1, 316.765, 381.5)">
   <g id="svg_76">
    <g id="svg_77">
     <g id="svg_78">
      <g id="svg_79">
       <path id="svg_80" d="m0,24.468084l120,0l0,67.914896q0,4.085106 -3.999901,4.085106l-112.000199,0q-3.9999,0 -3.9999,-4.085106l0,-67.914896z" fill="none"/>
       <g id="svg_81" transform="translate(0, 25) scale(1.00003, 0.979167)">
        <path id="svg_82" stroke-width="2" stroke-miterlimit="10" d="m0,-0.543232l119.997002,0l0,69.446812q0,4.085106 -3.999901,4.085106l-111.997201,0q-3.9999,0 -3.9999,-4.085106l0,-69.446812z" stroke="#1155cc" fill="#cfddf5"/>
       </g>
      </g>
     </g>
     <g id="svg_83">
      <g id="svg_84">
       <path id="svg_85" stroke-miterlimit="10" stroke-opacity="0" d="m80.497986,63.969872l0,-6.450382l-5.37886,0c-0.378998,-2.149788 -1.04097,-3.392681 -1.929955,-4.830639l3.810905,-3.932934l-4.710884,-4.836765l-3.899902,3.879829c-1.407959,-0.906895 -2.62693,-1.592175 -4.730881,-1.980259l0,-5.499573l-6.316841,0l0,5.49855c-2.103951,0.388088 -3.31992,1.06213 -4.726879,1.966984l-3.853905,-3.892086l-4.733883,4.816338l3.798904,3.978893c-0.886978,1.437962 -1.55896,2.680851 -1.93895,4.82962l-5.387867,0l0,6.450378l5.386868,0c0.378986,2.148773 1.038971,3.389618 1.92395,4.82962l-3.808907,3.935997l4.712883,4.837784l3.897903,-3.879822c1.407963,0.907913 2.624931,1.592171 4.728882,1.979233l0,5.499573l6.316841,0l0,-5.497536c2.103951,-0.387062 3.320923,-1.062119 4.73288,-1.969017l3.852913,3.891068l4.732872,-4.812256l-3.796906,-3.980942c0.888985,-1.43795 1.561958,-2.680847 1.938957,-4.829613l5.37986,-0.002045l0,0zm-13.331665,-3.226212c0,3.759315 -2.981926,6.807831 -6.666832,6.807831c-3.681908,0 -6.665833,-3.048515 -6.665833,-6.807831c0,-3.76136 2.983925,-6.808849 6.665833,-6.808849c3.684906,0 6.666832,3.047489 6.666832,6.808849z" stroke="rgb(0,0,0)" fill="#1155cc"/>
      </g>
     </g>
    </g>
   </g>
  </g>
  <g id="svg_86" transform="matrix(1, 0, 0, 1, 319, 363)">
   <g id="svg_87" transform="translate(-27, 1)">
    <g id="svg_88">
     <rect id="svg_89" fill-opacity="0" height="25" width="117" y="-1" x="27" fill="rgb(0,0,0)"/>
    </g>
   </g>
   <g id="svg_90" transform="translate(-27, 1)">
    <g id="svg_91">
     <rect id="svg_92" fill-opacity="0" height="13" width="117" y="-1" x="27" fill="rgb(0,0,0)"/>
    </g>
   </g>
   <g id="svg_93" transform="translate(-27, 1)">
    <g id="svg_94">
     <rect id="svg_95" fill-opacity="0" height="15" width="63" y="-2" x="54" fill="rgb(0,0,0)"/>
    </g>
    <text id="svg_96" y="11" x="54" font-weight="700" font-style="normal" font-size="13px" font-family="Helvetica" fill="rgb(0, 0, 0)">Dockerfile</text>
   </g>
  </g>
  <g id="svg_97" transform="matrix(1, 0, 0, 1, 316.765, 470)">
   <g id="svg_98">
    <g id="svg_99" transform="translate(0,0) scale(1.2,0.26)">
     <g id="svg_100">
      <path id="svg_101" d="m4,0l92,0q4,0 4,4l0,96l-100,0l0,-96q0,-4 4,-4z" fill="none"/>
      <g id="svg_102" transform="scale(0.8333333333333334,3.846153846153846)">
       <path id="svg_103" stroke-width="2" stroke-miterlimit="10" d="m4,0l112,0q4,0 4,4l0,22l-120,0l0,-22q0,-4 4,-4z" stroke="#3c78d8" fill="#3c78d8"/>
      </g>
     </g>
    </g>
   </g>
  </g>
  <g id="svg_104" transform="matrix(1, 0, 0, 1, 316.765, 496)">
   <g id="svg_105">
    <g id="svg_106">
     <g id="svg_107">
      <g id="svg_108">
       <path id="svg_109" d="m0,24.468084l120,0l0,67.914896q0,4.085106 -3.999901,4.085106l-112.000199,0q-3.9999,0 -3.9999,-4.085106l0,-67.914896z" fill="none"/>
       <g id="svg_110" transform="translate(0, 25) scale(1.00003, 0.979167)">
        <path id="svg_111" stroke-width="2" stroke-miterlimit="10" d="m0,-0.543232l119.997002,0l0,69.446812q0,4.085106 -3.999901,4.085106l-111.997201,0q-3.9999,0 -3.9999,-4.085106l0,-69.446812z" stroke="#3c78d8" fill="#d8e4f7"/>
       </g>
      </g>
     </g>
     <g id="svg_112">
      <g id="svg_113">
       <path id="svg_114" stroke-miterlimit="10" stroke-opacity="0" d="m70.399338,68.553192l0,1.702469c0,0.248169 -0.076996,0.452423 -0.231995,0.61174c-0.154991,0.159325 -0.35199,0.238983 -0.592979,0.238983l-18.149548,0c-0.240993,0 -0.438992,-0.079659 -0.592987,-0.238983c-0.154995,-0.159317 -0.231995,-0.363571 -0.231995,-0.61174l0,-1.702469c0,-0.248169 0.077,-0.452423 0.231995,-0.611748c0.154995,-0.159317 0.351994,-0.238976 0.592987,-0.238976l18.148548,0c0.24099,0 0.438988,0.079659 0.592979,0.238976c0.154999,0.159325 0.232994,0.363579 0.232994,0.611748zm0,-6.808853l0,1.702469c0,0.248169 -0.076996,0.452427 -0.231995,0.611748c-0.154991,0.159317 -0.35199,0.238976 -0.592979,0.238976l-18.149548,0c-0.240993,0 -0.438992,-0.079659 -0.592987,-0.238976c-0.154995,-0.159321 -0.231995,-0.363579 -0.231995,-0.611748l0,-1.702469c0,-0.248169 0.077,-0.452423 0.231995,-0.611744c0.154995,-0.159321 0.351994,-0.238979 0.592987,-0.238979l18.148548,0c0.24099,0 0.438988,0.079659 0.592979,0.238979c0.154999,0.159321 0.232994,0.363575 0.232994,0.611744zm-23.098419,16.170898l26.399338,0l0,-20.425537l-10.724731,0c-0.686981,0 -1.271965,-0.248169 -1.752956,-0.744507c-0.480984,-0.497364 -0.721981,-1.099915 -0.721981,-1.808685l0,-11.064507l-13.198669,0l0,34.043236l-0.000999,0zm16.498589,-23.830471l9.693756,0c-0.171997,-0.513702 -0.360992,-0.877277 -0.566986,-1.090725l-8.068794,-8.324425c-0.205994,-0.212425 -0.557991,-0.40749 -1.056976,-0.58519l0,10.00034l-0.000999,0zm13.199669,0.851742l0,23.829453c0,0.708763 -0.240997,1.312332 -0.721985,1.808678c-0.481987,0.496346 -1.065971,0.744514 -1.752953,0.744514l-28.049301,0c-0.686981,0 -1.271969,-0.248169 -1.752956,-0.744514c-0.480988,-0.496346 -0.721981,-1.098892 -0.721981,-1.808678l0,-35.744682c0,-0.708767 0.240993,-1.312344 0.721981,-1.808681c0.480988,-0.496342 1.065975,-0.744511 1.752956,-0.744511l16.499588,0c0.686985,0 1.442963,0.1777 2.268944,0.532085c0.824982,0.354382 1.477966,0.780254 1.958954,1.276596l8.043793,8.297871c0.480995,0.496342 0.893982,1.170383 1.237976,2.021107c0.342987,0.850723 0.514984,1.630978 0.514984,2.340763z" stroke="rgb(0,0,0)" fill="#3c78d8"/>
      </g>
     </g>
    </g>
   </g>
  </g>
  <g id="svg_115" transform="matrix(1, 0, 0, 1, 319, 476)">
   <g id="svg_116" transform="translate(-22)">
    <g id="svg_117">
     <rect id="svg_118" fill-opacity="0" height="26" width="117" y="0" x="22" fill="rgb(0,0,0)"/>
    </g>
   </g>
   <g id="svg_119" transform="translate(-22)">
    <g id="svg_120">
     <rect id="svg_121" fill-opacity="0" height="14" width="117" y="0" x="22" fill="rgb(0,0,0)"/>
    </g>
   </g>
   <g id="svg_122" transform="translate(-22)">
    <g id="svg_123">
     <rect id="svg_124" fill-opacity="0" height="14" width="73" y="0" x="44" fill="rgb(0,0,0)"/>
    </g>
    <text id="svg_125" y="11" x="44" font-weight="700" font-style="normal" font-size="12px" font-family="Arial" fill="rgb(0, 0, 0)">template</text>
    <text id="svg_126" y="11" x="93" font-weight="700" font-style="normal" font-size="12px" font-family="Arial" fill="rgb(0, 0, 0)">.</text>
    <text id="svg_127" y="11" x="97" font-weight="700" font-style="normal" font-size="12px" font-family="Arial" fill="rgb(0, 0, 0)">yml</text>
   </g>
  </g>
  <g id="svg_128" transform="matrix(1, 0, 0, 1, 105.1, 149.1)">
   <g id="svg_129">
    <g id="svg_130" transform="translate(4.5, 7.7)">
     <g id="svg_131">
      <path id="svg_132" stroke-width="2" stroke-miterlimit="10" d="m0,-3.199997l0,0l0,48l105.599998,0" stroke="#000000" fill="none"/>
     </g>
    </g>
   </g>
  </g>
  <g id="svg_133" transform="matrix(1, 0, 0, 1, 245.9, 246.7)">
   <g id="svg_134">
    <g id="svg_135" transform="translate(4.5, 4.5)">
     <g id="svg_136">
      <path id="svg_137" stroke-width="2" stroke-miterlimit="10" d="m0,0l1.600006,0l0,40.000015l136.799988,0" stroke="#000000" fill="none"/>
     </g>
    </g>
   </g>
  </g>
  <g id="svg_138" transform="matrix(1, 0, 0, 1, 246.7, 245.1)">
   <g id="svg_139">
    <g id="svg_140" transform="translate(4.5, 4.5)">
     <g id="svg_141">
      <path id="svg_142" stroke-width="2" stroke-miterlimit="10" d="m0,0l0,155.399994l65.564713,0" stroke="#000000" fill="none"/>
     </g>
    </g>
   </g>
  </g>
  <g id="svg_143" transform="matrix(1, 0, 0, 1, 245.9, 245.9)">
   <g id="svg_144">
    <g id="svg_145" transform="translate(4.5, 4.5)">
     <g id="svg_146">
      <path id="svg_147" stroke-width="2" stroke-miterlimit="10" d="m0,0l0,268.600006l66.364716,0" stroke="#000000" fill="none"/>
     </g>
    </g>
   </g>
  </g>
  <g id="svg_148" transform="matrix(1, 0, 0, 1, 496.765, 356.5)">
   <g id="svg_149">
    <g id="svg_150" transform="translate(0,0) scale(1.2,0.25)">
     <g id="svg_151">
      <path id="svg_152" d="m4,0l92,0q4,0 4,4l0,96l-100,0l0,-96q0,-4 4,-4z" fill="none"/>
      <g id="svg_153" transform="scale(0.8333333333333334,4)">
       <path id="svg_154" stroke-width="2" stroke-miterlimit="10" d="m4,0l112,0q4,0 4,4l0,21l-120,0l0,-21q0,-4 4,-4z" stroke="#999999" fill="#999999"/>
      </g>
     </g>
    </g>
   </g>
  </g>
  <g id="svg_155" transform="matrix(1, 0, 0, 1, 499, 363)">
   <g id="svg_156" transform="translate(-38, 1)">
    <g id="svg_157">
     <rect id="svg_158" fill-opacity="0" height="25" width="117" y="-1" x="38" fill="rgb(0,0,0)"/>
    </g>
   </g>
   <g id="svg_159" transform="translate(-38, 1)">
    <g id="svg_160">
     <rect id="svg_161" fill-opacity="0" height="13" width="117" y="-1" x="38" fill="rgb(0,0,0)"/>
    </g>
   </g>
   <g id="svg_162" transform="translate(-38, 1)">
    <g id="svg_163">
     <rect id="svg_164" fill-opacity="0" height="15" width="41" y="-2" x="76" fill="rgb(0,0,0)"/>
    </g>
    <text id="svg_165" y="11" x="76" font-weight="normal" font-style="normal" font-size="13px" font-family="Helvetica" fill="rgb(0, 0, 0)">Datei</text>
    <text id="svg_166" y="11" x="108" font-weight="normal" font-style="normal" font-size="13px" font-family="Helvetica" fill="rgb(0, 0, 0)">1</text>
   </g>
  </g>
  <g id="svg_167" transform="matrix(1, 0, 0, 1, 496.765, 381.5)">
   <g id="svg_168">
    <g id="svg_169">
     <g id="svg_170">
      <g id="svg_171">
       <path id="svg_172" d="m0,24.468084l120,0l0,67.914896q0,4.085106 -3.999901,4.085106l-112.000199,0q-3.9999,0 -3.9999,-4.085106l0,-67.914896z" fill="none"/>
       <g id="svg_173" transform="translate(0, 25) scale(1.00003, 0.979167)">
        <path id="svg_174" stroke-width="2" stroke-miterlimit="10" d="m0,-0.543232l119.997002,0l0,69.446812q0,4.085106 -3.999901,4.085106l-111.997201,0q-3.9999,0 -3.9999,-4.085106l0,-69.446812z" stroke="#999999" fill="#ebebeb"/>
       </g>
      </g>
     </g>
     <g id="svg_175">
      <g id="svg_176">
       <path id="svg_177" stroke-miterlimit="10" stroke-opacity="0" d="m48.0228,74.675911l-23.241419,-10.921528l0,-3.565277l23.241419,-12.366638l0,5.983662l-15.698608,7.903656l15.698608,7.005959l0,5.960167z" stroke="rgb(0,0,0)" fill="#999999"/>
      </g>
      <g id="svg_178">
       <path id="svg_179" stroke-miterlimit="10" stroke-opacity="0" d="m70.581238,43.283916l-13.306667,36.453442l-6.761833,0l13.304668,-36.452423l6.763832,0l0,-0.001019z" stroke="rgb(0,0,0)" fill="#999999"/>
      </g>
      <g id="svg_180">
       <path id="svg_181" stroke-miterlimit="10" stroke-opacity="0" d="m72.974174,68.716766l15.696609,-7.005959l-15.696609,-7.90366l0,-5.983658l23.241425,12.366638l0,3.565277l-23.241425,10.920506l0,-5.959145z" stroke="rgb(0,0,0)" fill="#999999"/>
      </g>
     </g>
    </g>
   </g>
  </g>
  <g id="svg_182" transform="matrix(1, 0, 0, 1, 496.765, 470)">
   <g id="svg_183">
    <g id="svg_184" transform="translate(0,0) scale(1.2,0.25)">
     <g id="svg_185">
      <path id="svg_186" d="m4,0l92,0q4,0 4,4l0,96l-100,0l0,-96q0,-4 4,-4z" fill="none"/>
      <g id="svg_187" transform="scale(0.8333333333333334,4)">
       <path id="svg_188" stroke-width="2" stroke-miterlimit="10" d="m4,0l112,0q4,0 4,4l0,21l-120,0l0,-21q0,-4 4,-4z" stroke="#999999" fill="#999999"/>
      </g>
     </g>
    </g>
   </g>
  </g>
  <g id="svg_189" transform="matrix(1, 0, 0, 1, 499, 476)">
   <g id="svg_190" transform="translate(-37, 1)">
    <g id="svg_191">
     <rect id="svg_192" fill-opacity="0" height="25" width="117" y="-1" x="37" fill="rgb(0,0,0)"/>
    </g>
   </g>
   <g id="svg_193" transform="translate(-37, 1)">
    <g id="svg_194">
     <rect id="svg_195" fill-opacity="0" height="13" width="117" y="-1" x="37" fill="rgb(0,0,0)"/>
    </g>
   </g>
   <g id="svg_196" transform="translate(-37, 1)">
    <g id="svg_197">
     <rect id="svg_198" fill-opacity="0" height="15" width="43" y="-2" x="74" fill="rgb(0,0,0)"/>
    </g>
    <text id="svg_199" y="11" x="74" font-weight="normal" font-style="normal" font-size="13px" font-family="Helvetica" fill="rgb(0, 0, 0)">Datei</text>
    <text id="svg_200" y="11" x="106" font-weight="normal" font-style="normal" font-size="13px" font-family="Helvetica" fill="rgb(0, 0, 0)">N</text>
   </g>
  </g>
  <g id="svg_201" transform="matrix(1, 0, 0, 1, 496.765, 495)">
   <g id="svg_202">
    <g id="svg_203">
     <g id="svg_204">
      <g id="svg_205">
       <path id="svg_206" d="m0,24.468084l120,0l0,67.914896q0,4.085106 -3.999901,4.085106l-112.000199,0q-3.9999,0 -3.9999,-4.085106l0,-67.914896z" fill="none"/>
       <g id="svg_207" transform="translate(0, 25) scale(1.00003, 0.979167)">
        <path id="svg_208" stroke-width="2" stroke-miterlimit="10" d="m0,-0.543232l119.997002,0l0,69.446812q0,4.085106 -3.999901,4.085106l-111.997201,0q-3.9999,0 -3.9999,-4.085106l0,-69.446812z" stroke="#999999" fill="#ebebeb"/>
       </g>
      </g>
     </g>
     <g id="svg_209">
      <g id="svg_210">
       <path id="svg_211" stroke-miterlimit="10" stroke-opacity="0" d="m48.0228,74.675911l-23.241419,-10.921528l0,-3.565277l23.241419,-12.366638l0,5.983662l-15.698608,7.903656l15.698608,7.005959l0,5.960167z" stroke="rgb(0,0,0)" fill="#999999"/>
      </g>
      <g id="svg_212">
       <path id="svg_213" stroke-miterlimit="10" stroke-opacity="0" d="m70.581238,43.283916l-13.306667,36.453442l-6.761833,0l13.304668,-36.452423l6.763832,0l0,-0.001019z" stroke="rgb(0,0,0)" fill="#999999"/>
      </g>
      <g id="svg_214">
       <path id="svg_215" stroke-miterlimit="10" stroke-opacity="0" d="m72.974174,68.716766l15.696609,-7.005959l-15.696609,-7.90366l0,-5.983658l23.241425,12.366638l0,3.565277l-23.241425,10.920506l0,-5.959145z" stroke="rgb(0,0,0)" fill="#999999"/>
      </g>
     </g>
    </g>
   </g>
  </g>
  <g id="svg_216" transform="matrix(1, 0, 0, 1, 452.3, 329.9)">
   <g id="svg_217">
    <g id="svg_218" transform="translate(4.5, 4.5)">
     <g id="svg_219">
      <path id="svg_220" stroke-width="2" stroke-miterlimit="10" d="m0,0l0,70.600006l39.964722,0" stroke="#000000" fill="none"/>
     </g>
    </g>
   </g>
  </g>
  <g id="svg_221" transform="matrix(1, 0, 0, 1, 450.7, 329.9)">
   <g id="svg_222">
    <g id="svg_223" transform="translate(4.5, 4.5)">
     <g id="svg_224">
      <path id="svg_225" stroke-width="2" stroke-miterlimit="10" d="m0,0l0,184.100006l41.564697,0" stroke="#000000" fill="none"/>
     </g>
    </g>
   </g>
  </g>
  <g id="svg_226" transform="matrix(1, 0, 0, 1, 590, 135)">
   <g id="svg_227">
    <g id="svg_228" transform="translate(0) scale(3.97059)">
     <g id="svg_229">
      <g id="svg_230">
       <g id="svg_231">
        <path id="svg_232" stroke-miterlimit="10" stroke-opacity="0" d="m39.125927,3.125926c0,0 -19.625002,0 -21.000002,0c-2,0 -2.999999,-3 -4.999999,-3c-2,0 -10,0 -10,0c-1.657,0 -3,1.344 -3,3l0,27.999999c0,1.657003 1.343,3.000002 3,3.000002l36.000001,0c1.655998,0 3,-1.342999 3,-3.000002l0,-24.999999c0,-1.656 -1.344002,-3 -3,-3zm1,27.999999c0,0.552999 -0.446999,1.000002 -1,1.000002l-36.000001,0c-0.552,0 -1,-0.447002 -1,-1.000002l0,-19.999999c0,-0.553 0.448,-1 1,-1l36.000001,0c0.553001,0 1,0.447 1,1l0,19.999999zm0,-22.815999c-0.313999,-0.112 -0.646999,-0.184 -1,-0.184l-36.000001,0c-0.353,0 -0.686,0.072 -1,0.184l0,-5.184c0,-0.552 0.448,-1 1,-1c0,0 7,0 9,0c3,0 2,3 4.999999,3c2.5,0 22.000002,0 22.000002,0c0.553001,0 1,0.448 1,1l0,2.184z" stroke="rgb(0,0,0)" fill="#9fc5e8"/>
       </g>
      </g>
     </g>
    </g>
   </g>
  </g>
  <g id="svg_233" transform="matrix(1, 0, 0, 1, 599, 193)">
   <g id="svg_234" transform="translate(-40)">
    <g id="svg_235">
     <rect id="svg_236" fill-opacity="0" height="18" width="150" y="0" x="40" fill="rgb(0,0,0)"/>
    </g>
   </g>
   <g id="svg_237" transform="translate(-40)">
    <g id="svg_238">
     <rect id="svg_239" fill-opacity="0" height="18" width="150" y="0" x="40" fill="rgb(0,0,0)"/>
    </g>
   </g>
   <g id="svg_240" transform="translate(-40)">
    <g id="svg_241">
     <rect id="svg_242" fill-opacity="0" height="17" width="70" y="0" x="80" fill="rgb(0,0,0)"/>
    </g>
    <text id="svg_243" y="15" x="80" font-weight="normal" font-style="normal" font-size="16px" font-family="Arial" fill="rgb(153, 153, 153)">Vorlage</text>
    <text id="svg_244" y="15" x="137" font-weight="normal" font-style="normal" font-size="16px" font-family="Arial" fill="rgb(153, 153, 153)">B</text>
   </g>
  </g>
  <g id="svg_245" transform="matrix(1, 0, 0, 1, 790, 135)">
   <g id="svg_246">
    <g id="svg_247" transform="translate(0) scale(3.97059)">
     <g id="svg_248">
      <g id="svg_249">
       <g id="svg_250">
        <path id="svg_251" stroke-miterlimit="10" stroke-opacity="0" d="m39.125927,3.125926c0,0 -19.625002,0 -21.000002,0c-2,0 -2.999999,-3 -4.999999,-3c-2,0 -10,0 -10,0c-1.657,0 -3,1.344 -3,3l0,27.999999c0,1.657003 1.343,3.000002 3,3.000002l36.000001,0c1.655998,0 3,-1.342999 3,-3.000002l0,-24.999999c0,-1.656 -1.344002,-3 -3,-3zm1,27.999999c0,0.552999 -0.446999,1.000002 -1,1.000002l-36.000001,0c-0.552,0 -1,-0.447002 -1,-1.000002l0,-19.999999c0,-0.553 0.448,-1 1,-1l36.000001,0c0.553001,0 1,0.447 1,1l0,19.999999zm0,-22.815999c-0.313999,-0.112 -0.646999,-0.184 -1,-0.184l-36.000001,0c-0.353,0 -0.686,0.072 -1,0.184l0,-5.184c0,-0.552 0.448,-1 1,-1c0,0 7,0 9,0c3,0 2,3 4.999999,3c2.5,0 22.000002,0 22.000002,0c0.553001,0 1,0.448 1,1l0,2.184z" stroke="rgb(0,0,0)" fill="#9fc5e8"/>
       </g>
      </g>
     </g>
    </g>
   </g>
  </g>
  <g id="svg_252" transform="matrix(1, 0, 0, 1, 799, 193)">
   <g id="svg_253" transform="translate(-40)">
    <g id="svg_254">
     <rect id="svg_255" fill-opacity="0" height="18" width="150" y="0" x="40" fill="rgb(0,0,0)"/>
    </g>
   </g>
   <g id="svg_256" transform="translate(-40)">
    <g id="svg_257">
     <rect id="svg_258" fill-opacity="0" height="18" width="150" y="0" x="40" fill="rgb(0,0,0)"/>
    </g>
   </g>
   <g id="svg_259" transform="translate(-40)">
    <g id="svg_260">
     <rect id="svg_261" fill-opacity="0" height="17" width="70" y="0" x="80" fill="rgb(0,0,0)"/>
    </g>
    <text id="svg_262" y="15" x="80" font-weight="normal" font-style="normal" font-size="16px" font-family="Arial" fill="rgb(153, 153, 153)">Vorlage</text>
    <text id="svg_263" y="15" x="136" font-weight="normal" font-style="normal" font-size="16px" font-family="Arial" fill="rgb(153, 153, 153)">C</text>
   </g>
  </g>
 </g>
</svg>